<?xml version="1.0" encoding="UTF-8" standalone="no"?>
<svg
   xmlns:dc="http://purl.org/dc/elements/1.1/"
   xmlns:cc="http://creativecommons.org/ns#"
   xmlns:rdf="http://www.w3.org/1999/02/22-rdf-syntax-ns#"
   xmlns:svg="http://www.w3.org/2000/svg"
   xmlns="http://www.w3.org/2000/svg"
   xmlns:sodipodi="http://sodipodi.sourceforge.net/DTD/sodipodi-0.dtd"
   xmlns:inkscape="http://www.inkscape.org/namespaces/inkscape"
   id="svg"
   width="400"
   height="300"
   viewBox="0, 0, 400,300"
   version="1.1"
   sodipodi:docname="chess-background.svg"
   inkscape:version="0.92.5 (2060ec1f9f, 2020-04-08)">
  <metadata
     id="metadata26">
    <rdf:RDF>
      <cc:Work
         rdf:about="">
        <dc:format>image/svg+xml</dc:format>
        <dc:type
           rdf:resource="http://purl.org/dc/dcmitype/StillImage" />
        <dc:title />
      </cc:Work>
    </rdf:RDF>
  </metadata>
  <defs
     id="defs24" />
  <sodipodi:namedview
     pagecolor="#ffffff"
     bordercolor="#666666"
     borderopacity="1"
     objecttolerance="10"
     gridtolerance="10"
     guidetolerance="10"
     inkscape:pageopacity="0"
     inkscape:pageshadow="2"
     inkscape:window-width="1366"
     inkscape:window-height="705"
     id="namedview22"
     showgrid="false"
     inkscape:zoom="1.4142136"
     inkscape:cx="175.80966"
     inkscape:cy="18.115212"
     inkscape:window-x="-8"
     inkscape:window-y="-8"
     inkscape:window-maximized="1"
     inkscape:current-layer="svg" />
  <g
     id="svgg"
     transform="translate(0,60.000151)"
     style="fill:#9e9e9f;fill-opacity:1">
    <path
       id="path0"
       d="m 175.293,44.884997 0.186,2.636 -2.683,-0.218 -2.682,-0.218 0.097,1.352 0.097,1.351 2.538,-0.111 2.539,-0.11 -0.004,1.495 c -0.006,2.644 -0.31,3.803 -0.999,3.803 -0.57,0 -0.6,0.136 -0.406,1.847 0.205,1.816 0.196,1.846 -0.554,1.846 -0.723,0 -1.551,0.562 -1.779,1.208 -0.058,0.162 -1.215,0.434 -2.572,0.603 -4.231,0.527 -4.046,-0.277 -1.866,8.094 l 1.659,6.367 -0.817,0.095 c -1.347,0.156 -1.19,1.904 0.184,2.037 0.963,0.093 1,0.146 1,1.461 0,1.251 0.064,1.365 0.769,1.365 0.423,0 0.769,0.045 0.769,0.1 0,1.125 -3.77,27.787993 -4.925,34.823993 -1.255,7.65 -2.432,10.303 -4.573,10.308 -2.187,0.005 -3.814,2.482 -3.638,5.538 0.121,2.084 0.063,2.392 -0.596,3.177 -0.401,0.479 -0.729,1.205 -0.729,1.616 v 0.745 h 20.154 20.153 v -0.656 c 0,-0.711 -1.127,-2.728 -1.525,-2.728 -0.134,0 -0.027,-0.606 0.239,-1.346 0.902,-2.508 -0.577,-5.275 -3.344,-6.258 -1.086,-0.386 -1.604,-0.77 -1.856,-1.378 -0.192,-0.464 -0.596,-0.923 -0.898,-1.018 -1.179,-0.374 -2.079,-5.721 -5.52,-32.769993 -0.506,-3.977 -1.013,-7.888 -1.127,-8.692 -0.191,-1.352 -0.157,-1.462 0.451,-1.462 0.521,0 0.657,-0.186 0.657,-0.897 0,-1.362 0.3,-1.872 1.099,-1.872 0.887,0 1.433,-0.874 1.014,-1.623 -0.164,-0.292 -0.567,-0.531 -0.897,-0.531 -0.665,0 -0.711,-0.267 -0.316,-1.846 0.832,-3.323 2.789,-10.708 2.945,-11.116 0.324,-0.845 -2.895,-1.807 -6.047,-1.807 -0.12,0 -0.304,-0.272 -0.41,-0.605 -0.122,-0.384 -0.581,-0.677 -1.262,-0.805 l -1.071,-0.201 0.205,-1.81 c 0.193,-1.705 0.167,-1.81 -0.451,-1.81 -0.483,0 -0.655,-0.19 -0.655,-0.724 0,-0.398 -0.091,-1.591 -0.201,-2.652 l -0.202,-1.928 2.586,0.114 2.586,0.113 0.097,-1.351 0.097,-1.352 -2.673,0.217 -2.674,0.217 0.22,-2.634 0.219,-2.635 h -1.397 -1.397 l 0.186,2.635 m 40.488,13.279 c -0.883,0.11 -0.973,0.212 -0.843,0.951 0.155,0.886 1.677,17.787 1.677,18.631 0,0.338 -0.264,0.504 -0.802,0.504 -0.598,0 -0.755,0.121 -0.619,0.478 0.105,0.273 0.054,0.397 -0.121,0.289 -0.167,-0.103 -0.304,0.023 -0.304,0.281 0,0.515 0.989,1.161 1.58,1.033 0.217,-0.047 0.488,0.466 0.646,1.227 0.207,0.996 0.414,1.307 0.869,1.307 0.878,0 -0.068,7.624993 -3.558,28.663993 -1.741,10.493 -2.851,13.49 -4.996,13.49 -2.612,0 -4.747,3.838 -3.741,6.726 0.297,0.85 0.258,1.039 -0.311,1.508 -0.681,0.56 -1.258,2.107 -1.031,2.766 0.171,0.5 39.93,0.57 40.238,0.071 0.3,-0.486 -0.442,-2.405 -1.112,-2.874 -0.501,-0.351 -0.548,-0.558 -0.284,-1.252 1.114,-2.931 -1.09,-6.945 -3.814,-6.945 -0.278,0 -0.789,-0.478 -1.134,-1.063 -0.345,-0.585 -0.887,-1.146 -1.205,-1.247 -0.317,-0.1 -0.648,-0.418 -0.735,-0.706 -0.656,-2.176 -5.719,-35.992993 -5.719,-38.202993 0,-0.604 0.184,-0.911 0.615,-1.024 0.471,-0.123 0.615,-0.419 0.615,-1.266 0,-0.96 0.097,-1.106 0.732,-1.106 1.567,0 1.951,-1.921 0.42,-2.098 -0.549,-0.063 -0.843,-0.278 -0.84,-0.615 0.006,-0.93 1.389,-15.584 1.708,-18.098 0.16,-1.258 0.15,-1.274 -0.896,-1.396 l -1.057,-0.123 -1.158,3.703 c -1.415,4.525 -1.377,4.479 -2.451,2.929 -0.48,-0.693 -1.272,-1.544 -1.76,-1.891 -0.812,-0.579 -0.846,-0.676 -0.407,-1.161 1.772,-1.959 -1.201,-4.522 -3.074,-2.649 -0.867,0.867 -0.97,1.882 -0.271,2.655 0.448,0.495 0.379,0.633 -0.911,1.822 -0.768,0.707 -1.48,1.55 -1.582,1.873 -0.374,1.178 -0.766,0.509 -2.003,-3.413 -0.693,-2.2 -1.286,-3.978 -1.317,-3.95 -0.031,0.027 -0.501,0.104 -1.044,0.172 m -89.124,7.185 c -0.891,0.701 -1.119,2.31 -0.426,3.017 0.309,0.316 0.165,0.585 -0.733,1.369 -4.881,4.262 -6.105,12.826 -2.264,15.847 l 0.849,0.668 -1.657,0.005 c -2.129,0.006 -2.538,0.282 -2.486,1.675 0.054,1.436 0.236,1.705 1.155,1.705 0.413,0 0.751,0.073 0.751,0.163 0,0.809993 -4.473,25.826993 -5.274,29.499993 -0.513,2.349 -0.764,2.923 -1.665,3.797 -0.583,0.567 -1.061,1.149 -1.061,1.293 0,0.144 -0.708,0.516 -1.572,0.827 -2.752,0.99 -4.121,3.544 -3.276,6.111 0.417,1.266 0.405,1.327 -0.439,2.271 -0.537,0.601 -0.867,1.317 -0.867,1.881 v 0.911 l 20.154,-0.008 20.154,-0.008 v -0.897 c 0,-0.552 -0.345,-1.289 -0.896,-1.917 -0.706,-0.804 -0.83,-1.138 -0.586,-1.575 1.165,-2.081 -0.055,-5.189 -2.523,-6.426 -4.415,-2.213 -4.138,-1.373 -8.759,-26.539 -0.777,-4.231 -1.486,-8.063 -1.575,-8.517 -0.147,-0.748993 -0.068,-0.834993 0.858,-0.922993 0.946,-0.091 1.027,-0.186 1.119,-1.317 0.126,-1.545 -0.455,-2.012 -2.502,-2.012 h -1.515 l 1.075,-1.191 c 3.117,-3.449 2.193,-10.088 -2.048,-14.729 -1.135,-1.242 -1.421,-1.738 -1.155,-2.004 0.989,-0.989 -0.207,-3.614 -1.647,-3.614 -0.208,0 -0.743,0.287 -1.189,0.637 m 144.308,0 c -0.874,0.687 -1.124,2.312 -0.458,2.977 0.266,0.266 -0.02,0.762 -1.155,2.004 -4.241,4.641 -5.165,11.28 -2.048,14.729 l 1.075,1.191 -1.343,0.004 c -2.498,0.008 -2.771,0.193 -2.667,1.805 0.089,1.363 0.135,1.426 1.112,1.52 0.928,0.089 1.005,0.172 0.851,0.922993 -0.093,0.454 -0.798,4.286 -1.567,8.517 -4.388,24.161 -4.627,24.949 -7.925,26.066 -2.991,1.013 -4.688,4.522 -3.346,6.92 0.229,0.41 0.091,0.769 -0.598,1.554 -0.559,0.636 -0.896,1.364 -0.896,1.932 v 0.913 h 20.154 20.154 v -0.9 c 0,-0.521 -0.339,-1.302 -0.806,-1.857 -0.759,-0.902 -0.785,-1.036 -0.436,-2.28 0.74,-2.645 -0.471,-4.928 -3.219,-6.067 -0.931,-0.386 -1.693,-0.831 -1.693,-0.988 0,-0.158 -0.477,-0.723 -1.059,-1.256 -0.912,-0.836 -1.142,-1.355 -1.664,-3.747 -0.79,-3.62 -5.277,-28.695 -5.277,-29.490993 0,-0.078 0.381,-0.186 0.846,-0.24 0.949,-0.109 1.536,-2.959 0.632,-3.069 -0.221,-0.027 -0.886,-0.08 -1.478,-0.117 -0.592,-0.037 -1.298,-0.084 -1.568,-0.105 -0.355,-0.027 -0.181,-0.362 0.627,-1.212 3.333,-3.504 1.97,-11.254 -2.7,-15.35 -0.898,-0.786 -1.048,-1.063 -0.742,-1.369 0.843,-0.843 0.426,-2.672 -0.751,-3.291 -0.914,-0.481 -1.119,-0.452 -2.055,0.284 m -191.128,7.104 c -0.609,0.535 -1.44,1.608 -1.846,2.385 -1.163,2.225 -1.704,2.71 -3.802,3.408 -12.005,3.996 -15.083,16.420993 -8.346,33.686993 2.871,7.359 2.444,11.13 -1.487,13.129 -2.991,1.522 -3.813,3.031 -3.212,5.902 0.293,1.402 0.265,1.668 -0.231,2.209 -0.547,0.597 -1.221,2.051 -1.221,2.635 0,0.176 7.927,0.288 20.332,0.288 h 20.333 l -0.211,-1 c -0.116,-0.55 -0.547,-1.359 -0.959,-1.797 -0.637,-0.68 -0.7,-0.921 -0.429,-1.636 1.079,-2.837 -0.445,-5.803 -3.444,-6.701 -1.299,-0.39 -2.234,-1.928 -3.021,-4.972 -0.947,-3.66 -2.938,-9.177 -3.868,-10.715 -1.164,-1.925 -2.057,-3.03 -6.04,-7.468 -3.015,-3.36 -3.051,-3.557 -0.636,-3.557 0.942,0 3.004,-0.22 4.581,-0.489 l 2.867,-0.489 1.073,1.074 c 3.39,3.389 8.488,1.578 9.562,-3.397 0.349,-1.619 0.082,-1.943 -5.375,-6.521993 -4.471,-3.752 -5.226,-4.51 -5.226,-5.246 0,-0.973 -0.685,-1.53 -2.993,-2.434 -1.279,-0.501 -1.489,-0.709 -1.623,-1.613 -0.132,-0.896 -0.332,-1.1 -1.461,-1.49 l -1.308,-0.452 v -2.856 c 0,-3.281 -0.201,-3.47 -2.009,-1.883 m 238.317,1.883 v 2.856 l -1.308,0.452 c -1.129,0.39 -1.329,0.594 -1.461,1.491 -0.129,0.865 -0.359,1.122 -1.385,1.541 -2.639,1.08 -3.231,1.536 -3.231,2.492 0,0.788 -0.593,1.395 -4.692,4.799 -6.125,5.084993 -6.188,5.155993 -5.946,6.671993 0.822,5.137 6.118,7.188 9.591,3.715 l 1.066,-1.067 3.027,0.482 c 1.665,0.264 3.73,0.481 4.588,0.481 2.317,0 2.23,0.253 -1.509,4.371 -5.368,5.914 -6.956,8.876 -9.052,16.89 -0.918,3.514 -1.806,5.046 -3.156,5.451 -2.989,0.895 -4.523,3.864 -3.452,6.681 0.262,0.689 0.189,0.963 -0.462,1.736 -0.424,0.505 -0.772,1.104 -0.772,1.331 0,0.227 -0.084,0.632 -0.187,0.899 -0.169,0.441 1.735,0.487 20.187,0.487 18.452,0 20.356,-0.046 20.187,-0.487 -0.103,-0.267 -0.187,-0.672 -0.187,-0.899 0,-0.227 -0.329,-0.804 -0.732,-1.283 -0.679,-0.806 -0.708,-0.985 -0.405,-2.463 0.589,-2.876 -0.375,-4.614 -3.325,-5.994 -3.746,-1.753 -4.228,-5.83 -1.5,-12.682 6.927,-17.399 3.612,-30.691993 -8.523,-34.173993 -1.809,-0.519 -2.413,-1.094 -3.61,-3.441 -0.697,-1.367 -2.585,-3.192 -3.3,-3.192 -0.364,0 -0.451,0.552 -0.451,2.855 m -299.688,2.76 c 0.026,8.598 1.279,11.918 4.498,11.922 1.19,0.002 1.219,0.093 1.699,5.465993 0.692,7.732 -0.006,11.906 -3.82,22.843 -2.466,7.073 -2.58,7.312 -3.59,7.534 -3.104,0.681 -5.113,4.622 -3.701,7.26 0.249,0.467 0.213,0.641 -0.165,0.786 -0.592,0.227 -1.387,1.694 -1.387,2.558 0,0.63 0.042,0.631 20.154,0.631 20.111,0 20.154,-0.001 20.154,-0.631 0,-0.834 -0.788,-2.328 -1.339,-2.539 -0.377,-0.145 -0.372,-0.369 0.032,-1.596 0.847,-2.573 -0.375,-4.941 -3.193,-6.187 -1.998,-0.883 -1.647,-0.174 -5.002,-10.124 -3.3,-9.787 -3.71,-12.402 -3.116,-19.893 0.473,-5.984993 0.505,-6.106993 1.59,-6.106993 3.393,0 4.504,-2.907 4.557,-11.923 l 0.009,-1.615 h -3.077 -3.077 v 3.384 3.385 h -1.538 -1.539 v -3.385 -3.384 h -4.478 -4.479 l 0.058,3.307 0.058,3.308 -1.579,0.093 -1.58,0.093 v -3.401 -3.4 h -3.077 -3.076 l 0.004,1.615 m 335.827,2.923 c 0.327,6.944 1.052,8.59 3.92,8.914 1.684,0.189 1.603,-0.048 2.097,6.192993 0.594,7.501 0.185,10.106 -3.128,19.893 -3.392,10.021 -3.012,9.249 -4.99,10.124 -2.807,1.242 -4.039,3.615 -3.2,6.164 0.254,0.773 0.341,1.405 0.192,1.405 -0.424,0 -1.489,1.924 -1.491,2.692 l -10e-4,0.692 H 367.846 388 l -10e-4,-0.692 c -0.002,-0.815 -1.078,-2.692 -1.544,-2.692 -0.224,0 -0.225,-0.183 -0.004,-0.596 1.255,-2.344 -0.058,-5.531 -2.833,-6.876 -2.176,-1.055 -2.042,-0.795 -5.108,-9.913 -3.321,-9.876 -3.909,-13.868 -3.147,-21.385 0.495,-4.877993 0.51,-4.922993 1.67,-4.923993 3.222,-0.004 4.475,-3.322 4.501,-11.922 l 0.004,-1.615 h -3.076 -3.077 v 3.384 3.385 h -1.539 -1.538 v -3.385 -3.384 h -4.462 -4.461 v 3.384 3.385 h -1.539 -1.538 v -3.385 -3.384 h -3.114 -3.115 l 0.214,4.538"
       inkscape:connector-curvature="0"
       style="fill:#9e9e9f;fill-opacity:1;fill-rule:evenodd;stroke:none"
       sodipodi:nodetypes="cccccccccscsccccccsssccccscccssccccccssscsccsccccsscccccccccccccccssccsccscsccccccssccscsscccccccccscccccccccccccssccscccscccscccccccscccssccccccccccccccscccscccsccsccscccscccccccccssccccccccscccccsccccsccccccscccccscccccscscsccccccsccccccccssscccccscccccccccccccccccccccccccccscccccscccccccccccccccccccccccccc" />
  </g>
  <rect
     id="rect3785"
     width="400"
     height="105"
     x="0"
     y="195"
     style="fill:#9e9e9f;fill-opacity:1;stroke-width:0.87038851" />
</svg>
